<svg xmlns="http://www.w3.org/2000/svg" xmlns:xlink="http://www.w3.org/1999/xlink" width="500" zoomAndPan="magnify" viewBox="0 0 375 74.999997" height="100" preserveAspectRatio="xMidYMid meet" version="1.0"><defs><g/></defs><g fill="#ffffff" fill-opacity="1"><g transform="translate(22.687567, 53.322281)"><g><path d="M 8.515625 0 L 0.734375 0 L 14.34375 -34.140625 L 22.125 -34.140625 L 35.75 0 L 32.34375 0 C 32.28125 -0.875 32.179688 -1.96875 32.046875 -3.28125 C 31.921875 -4.59375 31.695312 -6.039062 31.375 -7.625 C 31.050781 -9.21875 30.5625 -10.828125 29.90625 -12.453125 L 28.984375 -14.9375 L 14.453125 -14.9375 Z M 21.6875 -33.078125 L 14.78125 -15.765625 L 28.65625 -15.765625 Z M 21.6875 -33.078125 "/></g></g></g><g fill="#ffffff" fill-opacity="1"><g transform="translate(59.165265, 53.322281)"><g><path d="M 16 0.734375 C 13.789062 0.734375 11.472656 0.519531 9.046875 0.09375 C 6.617188 -0.320312 4.109375 -0.96875 1.515625 -1.84375 L 1.84375 -6.71875 C 4.894531 -4.476562 7.707031 -2.863281 10.28125 -1.875 C 12.863281 -0.882812 15.128906 -0.390625 17.078125 -0.390625 C 18.890625 -0.390625 20.4375 -0.757812 21.71875 -1.5 C 23 -2.25 23.898438 -3.222656 24.421875 -4.421875 C 24.941406 -5.617188 24.957031 -6.914062 24.46875 -8.3125 C 24.007812 -9.582031 23.128906 -10.710938 21.828125 -11.703125 C 20.535156 -12.691406 19.015625 -13.613281 17.265625 -14.46875 C 15.515625 -15.332031 13.707031 -16.175781 11.84375 -17 C 9.976562 -17.820312 8.234375 -18.6875 6.609375 -19.59375 C 4.992188 -20.507812 3.675781 -21.507812 2.65625 -22.59375 C 1.632812 -23.675781 1.101562 -24.898438 1.0625 -26.265625 C 1.03125 -28.242188 1.710938 -29.875 3.109375 -31.15625 C 4.503906 -32.4375 6.394531 -33.390625 8.78125 -34.015625 C 11.164062 -34.648438 13.785156 -34.96875 16.640625 -34.96875 C 20.785156 -34.96875 25.160156 -34.320312 29.765625 -33.03125 L 29.375 -28.15625 C 26.425781 -30.132812 23.671875 -31.585938 21.109375 -32.515625 C 18.546875 -33.441406 16.359375 -33.90625 14.546875 -33.90625 C 13.148438 -33.90625 11.867188 -33.757812 10.703125 -33.46875 C 9.535156 -33.175781 8.609375 -32.695312 7.921875 -32.03125 C 7.242188 -31.363281 6.921875 -30.460938 6.953125 -29.328125 C 6.984375 -28.453125 7.441406 -27.625 8.328125 -26.84375 C 9.222656 -26.070312 10.394531 -25.300781 11.84375 -24.53125 C 13.289062 -23.769531 14.875 -22.992188 16.59375 -22.203125 C 18.3125 -21.410156 20.03125 -20.578125 21.75 -19.703125 C 23.46875 -18.828125 25.054688 -17.878906 26.515625 -16.859375 C 27.972656 -15.835938 29.144531 -14.71875 30.03125 -13.5 C 30.925781 -12.28125 31.390625 -10.941406 31.421875 -9.484375 C 31.484375 -7.304688 30.875 -5.457031 29.59375 -3.9375 C 28.3125 -2.414062 26.503906 -1.253906 24.171875 -0.453125 C 21.835938 0.335938 19.113281 0.734375 16 0.734375 Z M 16 0.734375 "/></g></g></g><g fill="#ffffff" fill-opacity="1"><g transform="translate(92.870651, 53.322281)"><g><path d="M 19.9375 0 L 12.15625 0 L 12.15625 -33.3125 C 10.4375 -33.3125 8.925781 -33.15625 7.625 -32.84375 C 6.332031 -32.539062 5.144531 -32.085938 4.0625 -31.484375 C 2.976562 -30.890625 1.867188 -30.15625 0.734375 -29.28125 L 0.734375 -34.140625 L 31.375 -34.140625 L 31.375 -29.28125 C 30.269531 -30.15625 29.179688 -30.890625 28.109375 -31.484375 C 27.046875 -32.085938 25.875 -32.539062 24.59375 -32.84375 C 23.3125 -33.15625 21.757812 -33.3125 19.9375 -33.3125 Z M 19.9375 0 "/></g></g></g><g fill="#ffffff" fill-opacity="1"><g transform="translate(124.727844, 53.322281)"><g><path d="M 24.21875 -13.625 L 30.890625 0 L 23.109375 0 L 16.09375 -13.859375 C 15.84375 -14.347656 15.535156 -14.726562 15.171875 -15 C 14.816406 -15.28125 14.394531 -15.421875 13.90625 -15.421875 C 12.875 -15.421875 11.644531 -14.851562 10.21875 -13.71875 L 10.21875 0 L 2.4375 0 L 2.4375 -34.140625 L 19.3125 -34.140625 C 21.644531 -34.140625 23.546875 -33.734375 25.015625 -32.921875 C 26.492188 -32.117188 27.585938 -31.078125 28.296875 -29.796875 C 29.015625 -28.515625 29.375 -27.128906 29.375 -25.640625 C 29.375 -24.335938 29.070312 -23.015625 28.46875 -21.671875 C 27.875 -20.328125 26.96875 -19.148438 25.75 -18.140625 C 24.539062 -17.140625 23.007812 -16.441406 21.15625 -16.046875 C 22.644531 -15.597656 23.664062 -14.789062 24.21875 -13.625 Z M 16.828125 -16.921875 C 17.796875 -16.890625 18.675781 -17.210938 19.46875 -17.890625 C 20.269531 -18.578125 20.90625 -19.507812 21.375 -20.6875 C 21.84375 -21.875 22.078125 -23.195312 22.078125 -24.65625 C 22.078125 -26.25 21.800781 -27.703125 21.25 -29.015625 C 20.695312 -30.328125 19.878906 -31.367188 18.796875 -32.140625 C 17.710938 -32.921875 16.359375 -33.3125 14.734375 -33.3125 L 10.21875 -33.3125 L 10.21875 -14.546875 C 11.03125 -15.160156 12.019531 -15.71875 13.1875 -16.21875 C 14.351562 -16.71875 15.566406 -16.953125 16.828125 -16.921875 Z M 16.828125 -16.921875 "/></g></g></g><g fill="#ffffff" fill-opacity="1"><g transform="translate(157.314581, 53.322281)"><g><path d="M 19.0625 0.78125 C 15.144531 0.78125 11.894531 -0.0078125 9.3125 -1.59375 C 6.738281 -3.1875 4.828125 -5.320312 3.578125 -8 C 2.328125 -10.675781 1.703125 -13.648438 1.703125 -16.921875 C 1.703125 -20.617188 2.328125 -23.8125 3.578125 -26.5 C 4.828125 -29.195312 6.738281 -31.273438 9.3125 -32.734375 C 11.894531 -34.191406 15.144531 -34.921875 19.0625 -34.921875 C 23.019531 -34.921875 26.28125 -34.191406 28.84375 -32.734375 C 31.40625 -31.273438 33.3125 -29.195312 34.5625 -26.5 C 35.8125 -23.8125 36.4375 -20.617188 36.4375 -16.921875 C 36.4375 -13.648438 35.8125 -10.675781 34.5625 -8 C 33.3125 -5.320312 31.40625 -3.1875 28.84375 -1.59375 C 26.28125 -0.0078125 23.019531 0.78125 19.0625 0.78125 Z M 19.0625 -0.046875 C 20.882812 -0.046875 22.410156 -0.488281 23.640625 -1.375 C 24.867188 -2.269531 25.847656 -3.503906 26.578125 -5.078125 C 27.304688 -6.648438 27.832031 -8.445312 28.15625 -10.46875 C 28.488281 -12.5 28.65625 -14.648438 28.65625 -16.921875 C 28.65625 -19.160156 28.488281 -21.300781 28.15625 -23.34375 C 27.832031 -25.382812 27.304688 -27.21875 26.578125 -28.84375 C 25.847656 -30.46875 24.867188 -31.75 23.640625 -32.6875 C 22.410156 -33.625 20.882812 -34.09375 19.0625 -34.09375 C 17.15625 -34.09375 15.578125 -33.625 14.328125 -32.6875 C 13.078125 -31.75 12.101562 -30.46875 11.40625 -28.84375 C 10.707031 -27.21875 10.210938 -25.382812 9.921875 -23.34375 C 9.628906 -21.300781 9.484375 -19.160156 9.484375 -16.921875 C 9.484375 -14.648438 9.660156 -12.5 10.015625 -10.46875 C 10.378906 -8.445312 10.929688 -6.648438 11.671875 -5.078125 C 12.421875 -3.503906 13.398438 -2.269531 14.609375 -1.375 C 15.828125 -0.488281 17.3125 -0.046875 19.0625 -0.046875 Z M 19.0625 -0.046875 "/></g></g></g><g fill="#ffffff" fill-opacity="1"><g transform="translate(195.44594, 53.322281)"><g/></g></g><g fill="#ffffff" fill-opacity="1"><g transform="translate(206.632438, 53.322281)"><g><path d="M 10.21875 0 L 2.4375 0 L 2.4375 -34.140625 L 10.21875 -34.140625 Z M 10.21875 0 "/></g></g></g><g fill="#ffffff" fill-opacity="1"><g transform="translate(219.278038, 53.322281)"><g><path d="M 24.21875 -13.625 L 30.890625 0 L 23.109375 0 L 16.09375 -13.859375 C 15.84375 -14.347656 15.535156 -14.726562 15.171875 -15 C 14.816406 -15.28125 14.394531 -15.421875 13.90625 -15.421875 C 12.875 -15.421875 11.644531 -14.851562 10.21875 -13.71875 L 10.21875 0 L 2.4375 0 L 2.4375 -34.140625 L 19.3125 -34.140625 C 21.644531 -34.140625 23.546875 -33.734375 25.015625 -32.921875 C 26.492188 -32.117188 27.585938 -31.078125 28.296875 -29.796875 C 29.015625 -28.515625 29.375 -27.128906 29.375 -25.640625 C 29.375 -24.335938 29.070312 -23.015625 28.46875 -21.671875 C 27.875 -20.328125 26.96875 -19.148438 25.75 -18.140625 C 24.539062 -17.140625 23.007812 -16.441406 21.15625 -16.046875 C 22.644531 -15.597656 23.664062 -14.789062 24.21875 -13.625 Z M 16.828125 -16.921875 C 17.796875 -16.890625 18.675781 -17.210938 19.46875 -17.890625 C 20.269531 -18.578125 20.90625 -19.507812 21.375 -20.6875 C 21.84375 -21.875 22.078125 -23.195312 22.078125 -24.65625 C 22.078125 -26.25 21.800781 -27.703125 21.25 -29.015625 C 20.695312 -30.328125 19.878906 -31.367188 18.796875 -32.140625 C 17.710938 -32.921875 16.359375 -33.3125 14.734375 -33.3125 L 10.21875 -33.3125 L 10.21875 -14.546875 C 11.03125 -15.160156 12.019531 -15.71875 13.1875 -16.21875 C 14.351562 -16.71875 15.566406 -16.953125 16.828125 -16.921875 Z M 16.828125 -16.921875 "/></g></g></g><g fill="#ffffff" fill-opacity="1"><g transform="translate(251.864775, 53.322281)"><g><path d="M 27.28125 -34.140625 L 27.28125 -29.28125 C 25.851562 -30.351562 24.363281 -31.179688 22.8125 -31.765625 C 21.257812 -32.347656 19.484375 -32.75 17.484375 -32.96875 C 15.492188 -33.195312 13.070312 -33.3125 10.21875 -33.3125 L 10.21875 -19.453125 L 23.984375 -19.453125 L 23.984375 -18.625 L 10.21875 -18.625 L 10.21875 0 L 2.4375 0 L 2.4375 -34.140625 Z M 27.28125 -34.140625 "/></g></g></g><g fill="#ffffff" fill-opacity="1"><g transform="translate(281.484668, 53.322281)"><g><path d="M 8.515625 0 L 0.734375 0 L 14.34375 -34.140625 L 22.125 -34.140625 L 35.75 0 L 32.34375 0 C 32.28125 -0.875 32.179688 -1.96875 32.046875 -3.28125 C 31.921875 -4.59375 31.695312 -6.039062 31.375 -7.625 C 31.050781 -9.21875 30.5625 -10.828125 29.90625 -12.453125 L 28.984375 -14.9375 L 14.453125 -14.9375 Z M 21.6875 -33.078125 L 14.78125 -15.765625 L 28.65625 -15.765625 Z M 21.6875 -33.078125 "/></g></g></g><g fill="#ffffff" fill-opacity="1"><g transform="translate(317.962367, 53.322281)"><g><path d="M 5.734375 0 L 2.1875 0 C 2.769531 -1.976562 3.140625 -3.859375 3.296875 -5.640625 C 3.460938 -7.421875 3.546875 -9.351562 3.546875 -11.4375 L 3.546875 -34.140625 L 8.796875 -34.140625 L 30.59375 -3.359375 L 30.59375 -23.390625 C 30.59375 -25.046875 30.488281 -26.851562 30.28125 -28.8125 C 30.070312 -30.78125 29.738281 -32.554688 29.28125 -34.140625 L 32.78125 -34.140625 C 32.332031 -32.554688 32 -30.773438 31.78125 -28.796875 C 31.570312 -26.816406 31.46875 -25.015625 31.46875 -23.390625 L 31.46875 0 L 25.09375 0 L 4.328125 -29.375 L 4.375 -11.4375 C 4.375 -9.644531 4.453125 -7.785156 4.609375 -5.859375 C 4.773438 -3.929688 5.148438 -1.976562 5.734375 0 Z M 5.734375 0 "/></g></g></g></svg>